<svg xmlns="http://www.w3.org/2000/svg" xmlns:xlink="http://www.w3.org/1999/xlink" width="500" zoomAndPan="magnify" viewBox="0 0 375 374.999991" height="500" preserveAspectRatio="xMidYMid meet" version="1.2"><defs><clipPath id="d136ba19b5"><path d="M 11.175781 143.824219 L 90.671875 143.824219 L 90.671875 223.324219 L 11.175781 223.324219 Z M 11.175781 143.824219 "/></clipPath></defs><g id="73951628ef"><g style="fill:#545454;fill-opacity:1;"><g transform="translate(93.552091, 199.317856)"><path style="stroke:none" d="M 29.625 -22.921875 L 45.46875 -55.4375 L 57.375 -55.4375 L 29.171875 0.96875 L -0.453125 -55.4375 L 12.796875 -55.4375 Z M 29.625 -22.921875 "/></g></g><g style="fill:#545454;fill-opacity:1;"><g transform="translate(151.453747, 199.317856)"><path style="stroke:none" d="M 39.671875 0 L 5.28125 0 L 5.28125 -55.4375 L 34.75 -55.4375 L 34.75 -45.03125 L 16.8125 -45.03125 L 16.8125 -34.6875 L 37.65625 -34.6875 L 37.65625 -24.34375 L 16.8125 -24.34375 L 16.8125 -10.421875 L 39.671875 -10.421875 Z M 39.671875 0 "/></g></g><g style="fill:#545454;fill-opacity:1;"><g transform="translate(195.066085, 199.317856)"><path style="stroke:none" d="M 22.625 -9.59375 L 16.8125 -9.59375 L 16.8125 0 L 5.28125 0 L 5.28125 -55.4375 L 24.5625 -55.4375 C 27.832031 -55.4375 30.859375 -54.878906 33.640625 -53.765625 C 36.421875 -52.648438 38.851562 -51.085938 40.9375 -49.078125 C 43.019531 -47.066406 44.644531 -44.742188 45.8125 -42.109375 C 46.976562 -39.484375 47.5625 -36.660156 47.5625 -33.640625 C 47.5625 -28.679688 46.441406 -24.414062 44.203125 -20.84375 C 41.972656 -17.269531 38.921875 -14.585938 35.046875 -12.796875 L 47.03125 0 L 31.703125 0 Z M 16.8125 -20.015625 L 21.578125 -20.015625 C 26.140625 -20.015625 29.632812 -21.101562 32.0625 -23.28125 C 34.5 -25.46875 35.71875 -28.625 35.71875 -32.75 C 35.71875 -35.03125 35.269531 -37.085938 34.375 -38.921875 C 33.488281 -40.753906 32.164062 -42.226562 30.40625 -43.34375 C 28.644531 -44.46875 26.445312 -45.03125 23.8125 -45.03125 L 16.8125 -45.03125 Z M 16.8125 -20.015625 "/></g></g><g style="fill:#545454;fill-opacity:1;"><g transform="translate(246.269631, 199.317856)"><path style="stroke:none" d="M 16.8125 -55.4375 L 16.8125 0 L 5.28125 0 L 5.28125 -55.4375 Z M 16.8125 -55.4375 "/></g></g><g style="fill:#545454;fill-opacity:1;"><g transform="translate(269.341074, 199.317856)"><path style="stroke:none" d="M 16.8125 0 L 5.28125 0 L 5.28125 -55.4375 L 34.75 -55.4375 L 34.75 -45.03125 L 16.8125 -45.03125 L 16.8125 -34.6875 L 37.65625 -34.6875 L 37.65625 -24.34375 L 16.8125 -24.34375 Z M 16.8125 0 "/></g></g><g style="fill:#545454;fill-opacity:1;"><g transform="translate(310.199741, 199.317856)"><path style="stroke:none" d="M 28.953125 -28.203125 L 45.171875 -55.4375 L 57.3125 -55.4375 L 34.53125 -17.859375 L 34.53125 0 L 23.078125 0 L 23.078125 -16.8125 L -0.453125 -55.4375 L 12.796875 -55.4375 Z M 28.953125 -28.203125 "/></g></g><g clip-rule="nonzero" clip-path="url(#d136ba19b5)"><path style=" stroke:none;fill-rule:evenodd;fill:#0083f7;fill-opacity:1;" d="M 19.398438 143.824219 L 82.449219 143.824219 C 86.972656 143.824219 90.671875 147.523438 90.671875 152.046875 L 90.671875 215.097656 C 90.671875 219.621094 86.972656 223.324219 82.449219 223.324219 L 19.398438 223.324219 C 17.730469 223.324219 16.171875 222.816406 14.871094 221.953125 L 58.59375 193.160156 L 68.785156 203.550781 L 74.40625 160.824219 L 31.160156 165.183594 L 41.367188 175.589844 L 11.34375 216.761719 C 11.234375 216.222656 11.175781 215.667969 11.175781 215.097656 L 11.175781 152.046875 C 11.175781 147.523438 14.875 143.824219 19.398438 143.824219 "/></g><g style="fill:#545454;fill-opacity:1;"><g transform="translate(161.433941, 226.154738)"><path style="stroke:none" d="M 14.9375 -19.53125 L 19.25 -19.53125 L 12.03125 0 L 7.578125 0 L 0.40625 -19.53125 L 4.703125 -19.53125 L 9.828125 -4.734375 Z M 14.9375 -19.53125 "/></g></g><g style="fill:#545454;fill-opacity:1;"><g transform="translate(183.16853, 226.154738)"><path style="stroke:none" d="M 2.53125 0 L 2.53125 -19.53125 L 6.578125 -19.53125 L 6.578125 0 Z M 2.53125 0 "/></g></g><g style="fill:#545454;fill-opacity:1;"><g transform="translate(194.337593, 226.154738)"><path style="stroke:none" d="M 9.03125 0.265625 C 7.96875 0.265625 6.984375 0.144531 6.078125 -0.09375 C 5.171875 -0.34375 4.359375 -0.707031 3.640625 -1.1875 C 2.921875 -1.675781 2.332031 -2.269531 1.875 -2.96875 C 1.414062 -3.675781 1.109375 -4.488281 0.953125 -5.40625 L 4.96875 -6.328125 C 5.257812 -5.203125 5.765625 -4.375 6.484375 -3.84375 C 7.203125 -3.3125 8.070312 -3.046875 9.09375 -3.046875 C 9.664062 -3.046875 10.179688 -3.128906 10.640625 -3.296875 C 11.109375 -3.460938 11.472656 -3.710938 11.734375 -4.046875 C 12.003906 -4.390625 12.132812 -4.820312 12.125 -5.34375 C 12.125 -5.820312 11.992188 -6.222656 11.734375 -6.546875 C 11.484375 -6.878906 11.144531 -7.160156 10.71875 -7.390625 C 10.300781 -7.628906 9.816406 -7.835938 9.265625 -8.015625 C 8.722656 -8.203125 8.15625 -8.382812 7.5625 -8.5625 C 6.988281 -8.75 6.414062 -8.941406 5.84375 -9.140625 C 5.28125 -9.335938 4.742188 -9.578125 4.234375 -9.859375 C 3.734375 -10.140625 3.285156 -10.472656 2.890625 -10.859375 C 2.503906 -11.242188 2.195312 -11.703125 1.96875 -12.234375 C 1.75 -12.773438 1.640625 -13.410156 1.640625 -14.140625 C 1.640625 -15.046875 1.8125 -15.847656 2.15625 -16.546875 C 2.5 -17.242188 2.984375 -17.832031 3.609375 -18.3125 C 4.234375 -18.789062 4.960938 -19.15625 5.796875 -19.40625 C 6.628906 -19.664062 7.539062 -19.796875 8.53125 -19.796875 C 9.382812 -19.796875 10.222656 -19.703125 11.046875 -19.515625 C 11.878906 -19.328125 12.648438 -19.03125 13.359375 -18.625 C 14.066406 -18.226562 14.664062 -17.703125 15.15625 -17.046875 C 15.65625 -16.390625 16.003906 -15.59375 16.203125 -14.65625 L 12.53125 -13.75 C 12.21875 -14.6875 11.738281 -15.375 11.09375 -15.8125 C 10.457031 -16.257812 9.679688 -16.484375 8.765625 -16.484375 C 8.222656 -16.484375 7.722656 -16.40625 7.265625 -16.25 C 6.804688 -16.09375 6.4375 -15.851562 6.15625 -15.53125 C 5.882812 -15.207031 5.75 -14.796875 5.75 -14.296875 C 5.75 -13.890625 5.859375 -13.546875 6.078125 -13.265625 C 6.296875 -12.984375 6.59375 -12.742188 6.96875 -12.546875 C 7.351562 -12.347656 7.796875 -12.171875 8.296875 -12.015625 C 8.796875 -11.859375 9.320312 -11.695312 9.875 -11.53125 C 10.46875 -11.351562 11.066406 -11.160156 11.671875 -10.953125 C 12.285156 -10.742188 12.863281 -10.488281 13.40625 -10.1875 C 13.957031 -9.894531 14.453125 -9.539062 14.890625 -9.125 C 15.328125 -8.707031 15.671875 -8.207031 15.921875 -7.625 C 16.179688 -7.039062 16.3125 -6.351562 16.3125 -5.5625 C 16.3125 -4.632812 16.128906 -3.804688 15.765625 -3.078125 C 15.410156 -2.359375 14.90625 -1.75 14.25 -1.25 C 13.601562 -0.75 12.835938 -0.367188 11.953125 -0.109375 C 11.066406 0.140625 10.09375 0.265625 9.03125 0.265625 Z M 9.03125 0.265625 "/></g></g><g style="fill:#545454;fill-opacity:1;"><g transform="translate(213.937459, 226.154738)"><path style="stroke:none" d="M 13.84375 -19.53125 L 13.84375 -15.953125 L 9.21875 -15.953125 L 9.21875 0 L 5.203125 0 L 5.203125 -15.953125 L 0.546875 -15.953125 L 0.546875 -19.53125 Z M 13.84375 -19.53125 "/></g></g><g style="fill:#545454;fill-opacity:1;"><g transform="translate(230.402796, 226.154738)"><path style="stroke:none" d="M 15.59375 0 L 14.171875 -4.03125 L 5.96875 -4.03125 L 4.546875 0 L 0.40625 0 L 7.59375 -19.53125 L 12.546875 -19.53125 L 19.734375 0 Z M 7.15625 -7.421875 L 12.984375 -7.421875 L 10.078125 -15.703125 Z M 7.15625 -7.421875 "/></g></g></g></svg>