<svg xmlns="http://www.w3.org/2000/svg" xmlns:xlink="http://www.w3.org/1999/xlink" width="531" zoomAndPan="magnify" viewBox="0 0 398.25 164.249993" height="219" preserveAspectRatio="xMidYMid meet" version="1.2"><defs><clipPath id="606c6c205f"><path d="M 0.53125 0 L 396.972656 0 L 396.972656 163.503906 L 0.53125 163.503906 Z M 0.53125 0 "/></clipPath><linearGradient x1="78.000005" gradientTransform="matrix(0.746591,0,0,0.746591,0.531826,0)" y1="296.999995" x2="452.999989" gradientUnits="userSpaceOnUse" y2="-77.999989" id="8e0247723a"><stop style="stop-color:#1a1054;stop-opacity:1;" offset="0"/><stop style="stop-color:#1a1055;stop-opacity:1;" offset="0.00390625"/><stop style="stop-color:#1a1155;stop-opacity:1;" offset="0.0078125"/><stop style="stop-color:#1a1156;stop-opacity:1;" offset="0.0117187"/><stop style="stop-color:#1a1156;stop-opacity:1;" offset="0.015625"/><stop style="stop-color:#1a1257;stop-opacity:1;" offset="0.0195312"/><stop style="stop-color:#1a1258;stop-opacity:1;" offset="0.0234375"/><stop style="stop-color:#1a1258;stop-opacity:1;" offset="0.0273438"/><stop style="stop-color:#1a1259;stop-opacity:1;" offset="0.03125"/><stop style="stop-color:#1a135a;stop-opacity:1;" offset="0.0351562"/><stop style="stop-color:#1a135a;stop-opacity:1;" offset="0.0390625"/><stop style="stop-color:#1a135b;stop-opacity:1;" offset="0.0429688"/><stop style="stop-color:#1b145b;stop-opacity:1;" offset="0.046875"/><stop style="stop-color:#1b145c;stop-opacity:1;" offset="0.0507812"/><stop style="stop-color:#1b145d;stop-opacity:1;" offset="0.0546875"/><stop style="stop-color:#1b155d;stop-opacity:1;" offset="0.0585938"/><stop style="stop-color:#1b155e;stop-opacity:1;" offset="0.0625"/><stop style="stop-color:#1b155e;stop-opacity:1;" offset="0.0664062"/><stop style="stop-color:#1b165f;stop-opacity:1;" offset="0.0703125"/><stop style="stop-color:#1b1660;stop-opacity:1;" offset="0.0742188"/><stop style="stop-color:#1b1660;stop-opacity:1;" offset="0.078125"/><stop style="stop-color:#1b1661;stop-opacity:1;" offset="0.0820312"/><stop style="stop-color:#1b1761;stop-opacity:1;" offset="0.0859375"/><stop style="stop-color:#1b1762;stop-opacity:1;" offset="0.0898438"/><stop style="stop-color:#1b1763;stop-opacity:1;" offset="0.09375"/><stop style="stop-color:#1b1863;stop-opacity:1;" offset="0.0976562"/><stop style="stop-color:#1b1864;stop-opacity:1;" offset="0.101562"/><stop style="stop-color:#1b1865;stop-opacity:1;" offset="0.105469"/><stop style="stop-color:#1b1965;stop-opacity:1;" offset="0.109375"/><stop style="stop-color:#1b1966;stop-opacity:1;" offset="0.113281"/><stop style="stop-color:#1b1966;stop-opacity:1;" offset="0.117188"/><stop style="stop-color:#1b1a67;stop-opacity:1;" offset="0.121094"/><stop style="stop-color:#1b1a68;stop-opacity:1;" offset="0.125"/><stop style="stop-color:#1b1a68;stop-opacity:1;" offset="0.128906"/><stop style="stop-color:#1b1a69;stop-opacity:1;" offset="0.132812"/><stop style="stop-color:#1c1b69;stop-opacity:1;" offset="0.136719"/><stop style="stop-color:#1c1b6a;stop-opacity:1;" offset="0.140625"/><stop style="stop-color:#1c1b6b;stop-opacity:1;" offset="0.144531"/><stop style="stop-color:#1c1c6b;stop-opacity:1;" offset="0.148438"/><stop style="stop-color:#1c1c6c;stop-opacity:1;" offset="0.152344"/><stop style="stop-color:#1c1c6d;stop-opacity:1;" offset="0.15625"/><stop style="stop-color:#1c1d6d;stop-opacity:1;" offset="0.160156"/><stop style="stop-color:#1c1d6e;stop-opacity:1;" offset="0.164062"/><stop style="stop-color:#1c1d6e;stop-opacity:1;" offset="0.167969"/><stop style="stop-color:#1c1e6f;stop-opacity:1;" offset="0.171875"/><stop style="stop-color:#1c1e70;stop-opacity:1;" offset="0.175781"/><stop style="stop-color:#1c1e70;stop-opacity:1;" offset="0.179688"/><stop style="stop-color:#1c1e71;stop-opacity:1;" offset="0.183594"/><stop style="stop-color:#1c1f71;stop-opacity:1;" offset="0.1875"/><stop style="stop-color:#1c1f72;stop-opacity:1;" offset="0.191406"/><stop style="stop-color:#1c1f73;stop-opacity:1;" offset="0.195312"/><stop style="stop-color:#1c2073;stop-opacity:1;" offset="0.199219"/><stop style="stop-color:#1c2074;stop-opacity:1;" offset="0.203125"/><stop style="stop-color:#1c2074;stop-opacity:1;" offset="0.207031"/><stop style="stop-color:#1c2175;stop-opacity:1;" offset="0.210938"/><stop style="stop-color:#1c2176;stop-opacity:1;" offset="0.214844"/><stop style="stop-color:#1c2176;stop-opacity:1;" offset="0.21875"/><stop style="stop-color:#1c2277;stop-opacity:1;" offset="0.222656"/><stop style="stop-color:#1c2278;stop-opacity:1;" offset="0.226562"/><stop style="stop-color:#1d2278;stop-opacity:1;" offset="0.230469"/><stop style="stop-color:#1d2379;stop-opacity:1;" offset="0.234375"/><stop style="stop-color:#1d2379;stop-opacity:1;" offset="0.238281"/><stop style="stop-color:#1d237a;stop-opacity:1;" offset="0.242188"/><stop style="stop-color:#1d237b;stop-opacity:1;" offset="0.246094"/><stop style="stop-color:#1d247b;stop-opacity:1;" offset="0.25"/><stop style="stop-color:#1d247c;stop-opacity:1;" offset="0.253906"/><stop style="stop-color:#1d247c;stop-opacity:1;" offset="0.257812"/><stop style="stop-color:#1d257d;stop-opacity:1;" offset="0.261719"/><stop style="stop-color:#1d257e;stop-opacity:1;" offset="0.265625"/><stop style="stop-color:#1d257e;stop-opacity:1;" offset="0.269531"/><stop style="stop-color:#1d267f;stop-opacity:1;" offset="0.273438"/><stop style="stop-color:#1d2680;stop-opacity:1;" offset="0.277344"/><stop style="stop-color:#1d2680;stop-opacity:1;" offset="0.28125"/><stop style="stop-color:#1d2781;stop-opacity:1;" offset="0.285156"/><stop style="stop-color:#1d2781;stop-opacity:1;" offset="0.289062"/><stop style="stop-color:#1d2782;stop-opacity:1;" offset="0.292969"/><stop style="stop-color:#1d2783;stop-opacity:1;" offset="0.296875"/><stop style="stop-color:#1d2883;stop-opacity:1;" offset="0.300781"/><stop style="stop-color:#1d2884;stop-opacity:1;" offset="0.304688"/><stop style="stop-color:#1d2884;stop-opacity:1;" offset="0.308594"/><stop style="stop-color:#1d2985;stop-opacity:1;" offset="0.3125"/><stop style="stop-color:#1d2986;stop-opacity:1;" offset="0.316406"/><stop style="stop-color:#1e2986;stop-opacity:1;" offset="0.320312"/><stop style="stop-color:#1e2a87;stop-opacity:1;" offset="0.324219"/><stop style="stop-color:#1e2a88;stop-opacity:1;" offset="0.328125"/><stop style="stop-color:#1e2a88;stop-opacity:1;" offset="0.332031"/><stop style="stop-color:#1e2b89;stop-opacity:1;" offset="0.335938"/><stop style="stop-color:#1e2b89;stop-opacity:1;" offset="0.339844"/><stop style="stop-color:#1e2b8a;stop-opacity:1;" offset="0.34375"/><stop style="stop-color:#1e2b8b;stop-opacity:1;" offset="0.347656"/><stop style="stop-color:#1e2c8b;stop-opacity:1;" offset="0.351562"/><stop style="stop-color:#1e2c8c;stop-opacity:1;" offset="0.355469"/><stop style="stop-color:#1e2c8c;stop-opacity:1;" offset="0.359375"/><stop style="stop-color:#1e2d8d;stop-opacity:1;" offset="0.363281"/><stop style="stop-color:#1e2d8e;stop-opacity:1;" offset="0.367188"/><stop style="stop-color:#1e2d8e;stop-opacity:1;" offset="0.371094"/><stop style="stop-color:#1e2e8f;stop-opacity:1;" offset="0.375"/><stop style="stop-color:#1e2e8f;stop-opacity:1;" offset="0.378906"/><stop style="stop-color:#1e2e90;stop-opacity:1;" offset="0.382812"/><stop style="stop-color:#1e2f91;stop-opacity:1;" offset="0.386719"/><stop style="stop-color:#1e2f91;stop-opacity:1;" offset="0.390625"/><stop style="stop-color:#1e2f92;stop-opacity:1;" offset="0.394531"/><stop style="stop-color:#1e2f93;stop-opacity:1;" offset="0.398438"/><stop style="stop-color:#1e3093;stop-opacity:1;" offset="0.402344"/><stop style="stop-color:#1e3094;stop-opacity:1;" offset="0.40625"/><stop style="stop-color:#1f3094;stop-opacity:1;" offset="0.410156"/><stop style="stop-color:#1f3195;stop-opacity:1;" offset="0.414062"/><stop style="stop-color:#1f3196;stop-opacity:1;" offset="0.417969"/><stop style="stop-color:#1f3196;stop-opacity:1;" offset="0.421875"/><stop style="stop-color:#1f3297;stop-opacity:1;" offset="0.425781"/><stop style="stop-color:#1f3297;stop-opacity:1;" offset="0.429688"/><stop style="stop-color:#1f3298;stop-opacity:1;" offset="0.433594"/><stop style="stop-color:#1f3399;stop-opacity:1;" offset="0.4375"/><stop style="stop-color:#1f3399;stop-opacity:1;" offset="0.441406"/><stop style="stop-color:#1f339a;stop-opacity:1;" offset="0.445312"/><stop style="stop-color:#1f339b;stop-opacity:1;" offset="0.449219"/><stop style="stop-color:#1f349b;stop-opacity:1;" offset="0.453125"/><stop style="stop-color:#1f349c;stop-opacity:1;" offset="0.457031"/><stop style="stop-color:#1f349c;stop-opacity:1;" offset="0.460938"/><stop style="stop-color:#1f359d;stop-opacity:1;" offset="0.464844"/><stop style="stop-color:#1f359e;stop-opacity:1;" offset="0.46875"/><stop style="stop-color:#1f359e;stop-opacity:1;" offset="0.472656"/><stop style="stop-color:#1f369f;stop-opacity:1;" offset="0.476562"/><stop style="stop-color:#1f369f;stop-opacity:1;" offset="0.480469"/><stop style="stop-color:#1f36a0;stop-opacity:1;" offset="0.484375"/><stop style="stop-color:#1f37a1;stop-opacity:1;" offset="0.488281"/><stop style="stop-color:#1f37a1;stop-opacity:1;" offset="0.492188"/><stop style="stop-color:#1f37a2;stop-opacity:1;" offset="0.496094"/><stop style="stop-color:#2037a2;stop-opacity:1;" offset="0.5"/><stop style="stop-color:#2038a3;stop-opacity:1;" offset="0.503906"/><stop style="stop-color:#2038a4;stop-opacity:1;" offset="0.507812"/><stop style="stop-color:#2038a4;stop-opacity:1;" offset="0.511719"/><stop style="stop-color:#2039a5;stop-opacity:1;" offset="0.515625"/><stop style="stop-color:#2039a6;stop-opacity:1;" offset="0.519531"/><stop style="stop-color:#2039a6;stop-opacity:1;" offset="0.523438"/><stop style="stop-color:#203aa7;stop-opacity:1;" offset="0.527344"/><stop style="stop-color:#203aa7;stop-opacity:1;" offset="0.53125"/><stop style="stop-color:#203aa8;stop-opacity:1;" offset="0.535156"/><stop style="stop-color:#203ba9;stop-opacity:1;" offset="0.539062"/><stop style="stop-color:#203ba9;stop-opacity:1;" offset="0.542969"/><stop style="stop-color:#203baa;stop-opacity:1;" offset="0.546875"/><stop style="stop-color:#203baa;stop-opacity:1;" offset="0.550781"/><stop style="stop-color:#203cab;stop-opacity:1;" offset="0.554688"/><stop style="stop-color:#203cac;stop-opacity:1;" offset="0.558594"/><stop style="stop-color:#203cac;stop-opacity:1;" offset="0.5625"/><stop style="stop-color:#203dad;stop-opacity:1;" offset="0.566406"/><stop style="stop-color:#203dae;stop-opacity:1;" offset="0.570312"/><stop style="stop-color:#203dae;stop-opacity:1;" offset="0.574219"/><stop style="stop-color:#203eaf;stop-opacity:1;" offset="0.578125"/><stop style="stop-color:#203eaf;stop-opacity:1;" offset="0.582031"/><stop style="stop-color:#203eb0;stop-opacity:1;" offset="0.585938"/><stop style="stop-color:#203fb1;stop-opacity:1;" offset="0.589844"/><stop style="stop-color:#213fb1;stop-opacity:1;" offset="0.59375"/><stop style="stop-color:#213fb2;stop-opacity:1;" offset="0.597656"/><stop style="stop-color:#2140b2;stop-opacity:1;" offset="0.601562"/><stop style="stop-color:#2140b3;stop-opacity:1;" offset="0.605469"/><stop style="stop-color:#2140b4;stop-opacity:1;" offset="0.609375"/><stop style="stop-color:#2140b4;stop-opacity:1;" offset="0.613281"/><stop style="stop-color:#2141b5;stop-opacity:1;" offset="0.617188"/><stop style="stop-color:#2141b6;stop-opacity:1;" offset="0.621094"/><stop style="stop-color:#2141b6;stop-opacity:1;" offset="0.625"/><stop style="stop-color:#2142b7;stop-opacity:1;" offset="0.628906"/><stop style="stop-color:#2142b7;stop-opacity:1;" offset="0.632812"/><stop style="stop-color:#2142b8;stop-opacity:1;" offset="0.636719"/><stop style="stop-color:#2143b9;stop-opacity:1;" offset="0.640625"/><stop style="stop-color:#2143b9;stop-opacity:1;" offset="0.644531"/><stop style="stop-color:#2143ba;stop-opacity:1;" offset="0.648438"/><stop style="stop-color:#2144ba;stop-opacity:1;" offset="0.652344"/><stop style="stop-color:#2144bb;stop-opacity:1;" offset="0.65625"/><stop style="stop-color:#2144bc;stop-opacity:1;" offset="0.660156"/><stop style="stop-color:#2144bc;stop-opacity:1;" offset="0.664062"/><stop style="stop-color:#2145bd;stop-opacity:1;" offset="0.667969"/><stop style="stop-color:#2145bd;stop-opacity:1;" offset="0.671875"/><stop style="stop-color:#2145be;stop-opacity:1;" offset="0.675781"/><stop style="stop-color:#2146bf;stop-opacity:1;" offset="0.679688"/><stop style="stop-color:#2246bf;stop-opacity:1;" offset="0.683594"/><stop style="stop-color:#2246c0;stop-opacity:1;" offset="0.6875"/><stop style="stop-color:#2247c1;stop-opacity:1;" offset="0.691406"/><stop style="stop-color:#2247c1;stop-opacity:1;" offset="0.695312"/><stop style="stop-color:#2247c2;stop-opacity:1;" offset="0.699219"/><stop style="stop-color:#2248c2;stop-opacity:1;" offset="0.703125"/><stop style="stop-color:#2248c3;stop-opacity:1;" offset="0.707031"/><stop style="stop-color:#2248c4;stop-opacity:1;" offset="0.710938"/><stop style="stop-color:#2248c4;stop-opacity:1;" offset="0.714844"/><stop style="stop-color:#2249c5;stop-opacity:1;" offset="0.71875"/><stop style="stop-color:#2249c5;stop-opacity:1;" offset="0.722656"/><stop style="stop-color:#2249c6;stop-opacity:1;" offset="0.726562"/><stop style="stop-color:#224ac7;stop-opacity:1;" offset="0.730469"/><stop style="stop-color:#224ac7;stop-opacity:1;" offset="0.734375"/><stop style="stop-color:#224ac8;stop-opacity:1;" offset="0.738281"/><stop style="stop-color:#224bc9;stop-opacity:1;" offset="0.742188"/><stop style="stop-color:#224bc9;stop-opacity:1;" offset="0.746094"/><stop style="stop-color:#224bca;stop-opacity:1;" offset="0.75"/><stop style="stop-color:#224cca;stop-opacity:1;" offset="0.753906"/><stop style="stop-color:#224ccb;stop-opacity:1;" offset="0.757812"/><stop style="stop-color:#224ccc;stop-opacity:1;" offset="0.761719"/><stop style="stop-color:#224ccc;stop-opacity:1;" offset="0.765625"/><stop style="stop-color:#224dcd;stop-opacity:1;" offset="0.769531"/><stop style="stop-color:#234dcd;stop-opacity:1;" offset="0.773438"/><stop style="stop-color:#234dce;stop-opacity:1;" offset="0.777344"/><stop style="stop-color:#234ecf;stop-opacity:1;" offset="0.78125"/><stop style="stop-color:#234ecf;stop-opacity:1;" offset="0.785156"/><stop style="stop-color:#234ed0;stop-opacity:1;" offset="0.789062"/><stop style="stop-color:#234fd0;stop-opacity:1;" offset="0.792969"/><stop style="stop-color:#234fd1;stop-opacity:1;" offset="0.796875"/><stop style="stop-color:#234fd2;stop-opacity:1;" offset="0.800781"/><stop style="stop-color:#2350d2;stop-opacity:1;" offset="0.804688"/><stop style="stop-color:#2350d3;stop-opacity:1;" offset="0.808594"/><stop style="stop-color:#2350d4;stop-opacity:1;" offset="0.8125"/><stop style="stop-color:#2350d4;stop-opacity:1;" offset="0.816406"/><stop style="stop-color:#2351d5;stop-opacity:1;" offset="0.820312"/><stop style="stop-color:#2351d5;stop-opacity:1;" offset="0.824219"/><stop style="stop-color:#2351d6;stop-opacity:1;" offset="0.828125"/><stop style="stop-color:#2352d7;stop-opacity:1;" offset="0.832031"/><stop style="stop-color:#2352d7;stop-opacity:1;" offset="0.835938"/><stop style="stop-color:#2352d8;stop-opacity:1;" offset="0.839844"/><stop style="stop-color:#2353d8;stop-opacity:1;" offset="0.84375"/><stop style="stop-color:#2353d9;stop-opacity:1;" offset="0.847656"/><stop style="stop-color:#2353da;stop-opacity:1;" offset="0.851562"/><stop style="stop-color:#2354da;stop-opacity:1;" offset="0.855469"/><stop style="stop-color:#2354db;stop-opacity:1;" offset="0.859375"/><stop style="stop-color:#2354dc;stop-opacity:1;" offset="0.863281"/><stop style="stop-color:#2454dc;stop-opacity:1;" offset="0.867188"/><stop style="stop-color:#2455dd;stop-opacity:1;" offset="0.871094"/><stop style="stop-color:#2455dd;stop-opacity:1;" offset="0.875"/><stop style="stop-color:#2455de;stop-opacity:1;" offset="0.878906"/><stop style="stop-color:#2456df;stop-opacity:1;" offset="0.882812"/><stop style="stop-color:#2456df;stop-opacity:1;" offset="0.886719"/><stop style="stop-color:#2456e0;stop-opacity:1;" offset="0.890625"/><stop style="stop-color:#2457e0;stop-opacity:1;" offset="0.894531"/><stop style="stop-color:#2457e1;stop-opacity:1;" offset="0.898438"/><stop style="stop-color:#2457e2;stop-opacity:1;" offset="0.902344"/><stop style="stop-color:#2458e2;stop-opacity:1;" offset="0.90625"/><stop style="stop-color:#2458e3;stop-opacity:1;" offset="0.910156"/><stop style="stop-color:#2458e4;stop-opacity:1;" offset="0.914062"/><stop style="stop-color:#2459e4;stop-opacity:1;" offset="0.917969"/><stop style="stop-color:#2459e5;stop-opacity:1;" offset="0.921875"/><stop style="stop-color:#2459e5;stop-opacity:1;" offset="0.925781"/><stop style="stop-color:#2459e6;stop-opacity:1;" offset="0.929688"/><stop style="stop-color:#245ae7;stop-opacity:1;" offset="0.933594"/><stop style="stop-color:#245ae7;stop-opacity:1;" offset="0.9375"/><stop style="stop-color:#245ae8;stop-opacity:1;" offset="0.941406"/><stop style="stop-color:#245be8;stop-opacity:1;" offset="0.945312"/><stop style="stop-color:#245be9;stop-opacity:1;" offset="0.949219"/><stop style="stop-color:#245bea;stop-opacity:1;" offset="0.953125"/><stop style="stop-color:#255cea;stop-opacity:1;" offset="0.957031"/><stop style="stop-color:#255ceb;stop-opacity:1;" offset="0.960938"/><stop style="stop-color:#255ceb;stop-opacity:1;" offset="0.964844"/><stop style="stop-color:#255dec;stop-opacity:1;" offset="0.96875"/><stop style="stop-color:#255ded;stop-opacity:1;" offset="0.972656"/><stop style="stop-color:#255ded;stop-opacity:1;" offset="0.976562"/><stop style="stop-color:#255dee;stop-opacity:1;" offset="0.980469"/><stop style="stop-color:#255eef;stop-opacity:1;" offset="0.984375"/><stop style="stop-color:#255eef;stop-opacity:1;" offset="0.988281"/><stop style="stop-color:#255ef0;stop-opacity:1;" offset="0.992188"/><stop style="stop-color:#255ff0;stop-opacity:1;" offset="0.996094"/><stop style="stop-color:#255ff1;stop-opacity:1;" offset="1"/></linearGradient><clipPath id="3bb1568fdd"><rect x="0" width="295" y="0" height="81"/></clipPath><clipPath id="0eaedbc78c"><path d="M 9.421875 37.25 L 93.703125 37.25 L 93.703125 121.53125 L 9.421875 121.53125 Z M 9.421875 37.25 "/></clipPath><clipPath id="b3e869fa2c"><rect x="0" width="98" y="0" height="40"/></clipPath></defs><g id="792f500197"><g clip-rule="nonzero" clip-path="url(#606c6c205f)"><path style=" stroke:none;fill-rule:nonzero;fill:#ffffff;fill-opacity:1;" d="M 0.53125 0 L 396.972656 0 L 396.972656 163.503906 L 0.53125 163.503906 Z M 0.53125 0 "/><path style=" stroke:none;fill-rule:nonzero;fill:url(#8e0247723a);" d="M 0.53125 0 L 0.53125 163.503906 L 396.972656 163.503906 L 396.972656 0 Z M 0.53125 0 "/></g><g transform="matrix(1,0,0,1,94,36)"><g clip-path="url(#3bb1568fdd)"><g style="fill:#ffffff;fill-opacity:1;"><g transform="translate(2.724345, 60.058906)"><path style="stroke:none" d="M 31.390625 -24.296875 L 48.1875 -58.765625 L 60.8125 -58.765625 L 30.921875 1.03125 L -0.46875 -58.765625 L 13.5625 -58.765625 Z M 31.390625 -24.296875 "/></g></g><g style="fill:#ffffff;fill-opacity:1;"><g transform="translate(64.085495, 60.058906)"><path style="stroke:none" d="M 42.046875 0 L 5.59375 0 L 5.59375 -58.765625 L 36.828125 -58.765625 L 36.828125 -47.71875 L 17.828125 -47.71875 L 17.828125 -36.75 L 39.90625 -36.75 L 39.90625 -25.796875 L 17.828125 -25.796875 L 17.828125 -11.046875 L 42.046875 -11.046875 Z M 42.046875 0 "/></g></g><g style="fill:#ffffff;fill-opacity:1;"><g transform="translate(110.303573, 60.058906)"><path style="stroke:none" d="M 23.984375 -10.171875 L 17.828125 -10.171875 L 17.828125 0 L 5.59375 0 L 5.59375 -58.765625 L 26.03125 -58.765625 C 29.5 -58.765625 32.703125 -58.171875 35.640625 -56.984375 C 38.585938 -55.804688 41.164062 -54.148438 43.375 -52.015625 C 45.582031 -49.890625 47.304688 -47.429688 48.546875 -44.640625 C 49.785156 -41.859375 50.40625 -38.863281 50.40625 -35.65625 C 50.40625 -30.394531 49.21875 -25.867188 46.84375 -22.078125 C 44.476562 -18.296875 41.25 -15.457031 37.15625 -13.5625 L 49.84375 0 L 33.59375 0 Z M 17.828125 -21.21875 L 22.875 -21.21875 C 27.707031 -21.21875 31.410156 -22.375 33.984375 -24.6875 C 36.566406 -27 37.859375 -30.335938 37.859375 -34.703125 C 37.859375 -37.117188 37.382812 -39.300781 36.4375 -41.25 C 35.488281 -43.195312 34.082031 -44.757812 32.21875 -45.9375 C 30.351562 -47.125 28.023438 -47.71875 25.234375 -47.71875 L 17.828125 -47.71875 Z M 17.828125 -21.21875 "/></g></g><g style="fill:#ffffff;fill-opacity:1;"><g transform="translate(164.566416, 60.058906)"><path style="stroke:none" d="M 17.828125 -58.765625 L 17.828125 0 L 5.59375 0 L 5.59375 -58.765625 Z M 17.828125 -58.765625 "/></g></g><g style="fill:#ffffff;fill-opacity:1;"><g transform="translate(189.016325, 60.058906)"><path style="stroke:none" d="M 17.828125 0 L 5.59375 0 L 5.59375 -58.765625 L 36.828125 -58.765625 L 36.828125 -47.71875 L 17.828125 -47.71875 L 17.828125 -36.75 L 39.90625 -36.75 L 39.90625 -25.796875 L 17.828125 -25.796875 Z M 17.828125 0 "/></g></g><g style="fill:#ffffff;fill-opacity:1;"><g transform="translate(232.316206, 60.058906)"><path style="stroke:none" d="M 30.6875 -29.890625 L 47.875 -58.765625 L 60.734375 -58.765625 L 36.59375 -18.9375 L 36.59375 0 L 24.453125 0 L 24.453125 -17.828125 L -0.46875 -58.765625 L 13.5625 -58.765625 Z M 30.6875 -29.890625 "/></g></g></g></g><g clip-rule="nonzero" clip-path="url(#0eaedbc78c)"><path style=" stroke:none;fill-rule:evenodd;fill:#ffffff;fill-opacity:1;" d="M 18.140625 37.25 L 84.984375 37.25 C 89.78125 37.25 93.703125 41.171875 93.703125 45.96875 L 93.703125 112.8125 C 93.703125 117.609375 89.78125 121.53125 84.984375 121.53125 L 18.140625 121.53125 C 16.371094 121.53125 14.71875 120.996094 13.339844 120.082031 L 59.695312 89.554688 L 70.5 100.570312 L 76.457031 55.273438 L 30.609375 59.894531 L 41.429688 70.925781 L 9.601562 114.574219 C 9.484375 114.003906 9.421875 113.417969 9.421875 112.8125 L 9.421875 45.96875 C 9.421875 41.171875 13.34375 37.25 18.140625 37.25 "/></g><g transform="matrix(1,0,0,1,168,94)"><g clip-path="url(#b3e869fa2c)"><g style="fill:#ffffff;fill-opacity:1;"><g transform="translate(0.649013, 30.499239)"><path style="stroke:none" d="M 15.84375 -20.6875 L 20.40625 -20.6875 L 12.765625 0 L 8.03125 0 L 0.421875 -20.6875 L 4.984375 -20.6875 L 10.40625 -5.015625 Z M 15.84375 -20.6875 "/></g></g><g style="fill:#ffffff;fill-opacity:1;"><g transform="translate(23.682195, 30.499239)"><path style="stroke:none" d="M 2.671875 0 L 2.671875 -20.6875 L 6.96875 -20.6875 L 6.96875 0 Z M 2.671875 0 "/></g></g><g style="fill:#ffffff;fill-opacity:1;"><g transform="translate(35.518584, 30.499239)"><path style="stroke:none" d="M 9.5625 0.28125 C 8.445312 0.28125 7.40625 0.148438 6.4375 -0.109375 C 5.476562 -0.367188 4.617188 -0.753906 3.859375 -1.265625 C 3.097656 -1.773438 2.472656 -2.398438 1.984375 -3.140625 C 1.503906 -3.890625 1.179688 -4.753906 1.015625 -5.734375 L 5.265625 -6.703125 C 5.578125 -5.515625 6.113281 -4.632812 6.875 -4.0625 C 7.632812 -3.5 8.554688 -3.21875 9.640625 -3.21875 C 10.242188 -3.21875 10.789062 -3.304688 11.28125 -3.484375 C 11.769531 -3.660156 12.15625 -3.929688 12.4375 -4.296875 C 12.71875 -4.660156 12.851562 -5.117188 12.84375 -5.671875 C 12.84375 -6.179688 12.707031 -6.609375 12.4375 -6.953125 C 12.175781 -7.296875 11.820312 -7.59375 11.375 -7.84375 C 10.925781 -8.09375 10.410156 -8.3125 9.828125 -8.5 C 9.253906 -8.695312 8.648438 -8.890625 8.015625 -9.078125 C 7.410156 -9.265625 6.804688 -9.46875 6.203125 -9.6875 C 5.597656 -9.90625 5.023438 -10.160156 4.484375 -10.453125 C 3.953125 -10.742188 3.476562 -11.09375 3.0625 -11.5 C 2.65625 -11.914062 2.332031 -12.40625 2.09375 -12.96875 C 1.851562 -13.539062 1.734375 -14.21875 1.734375 -15 C 1.734375 -15.945312 1.914062 -16.789062 2.28125 -17.53125 C 2.644531 -18.269531 3.15625 -18.894531 3.8125 -19.40625 C 4.476562 -19.914062 5.253906 -20.304688 6.140625 -20.578125 C 7.023438 -20.847656 7.988281 -20.984375 9.03125 -20.984375 C 9.9375 -20.984375 10.828125 -20.882812 11.703125 -20.6875 C 12.585938 -20.488281 13.40625 -20.175781 14.15625 -19.75 C 14.90625 -19.320312 15.539062 -18.757812 16.0625 -18.0625 C 16.59375 -17.375 16.960938 -16.53125 17.171875 -15.53125 L 13.28125 -14.578125 C 12.945312 -15.566406 12.441406 -16.296875 11.765625 -16.765625 C 11.085938 -17.234375 10.265625 -17.46875 9.296875 -17.46875 C 8.722656 -17.46875 8.191406 -17.382812 7.703125 -17.21875 C 7.210938 -17.050781 6.820312 -16.796875 6.53125 -16.453125 C 6.238281 -16.117188 6.09375 -15.6875 6.09375 -15.15625 C 6.09375 -14.71875 6.207031 -14.351562 6.4375 -14.0625 C 6.664062 -13.769531 6.984375 -13.515625 7.390625 -13.296875 C 7.796875 -13.085938 8.265625 -12.898438 8.796875 -12.734375 C 9.328125 -12.566406 9.882812 -12.398438 10.46875 -12.234375 C 11.09375 -12.035156 11.726562 -11.820312 12.375 -11.59375 C 13.019531 -11.375 13.632812 -11.109375 14.21875 -10.796875 C 14.800781 -10.492188 15.320312 -10.117188 15.78125 -9.671875 C 16.25 -9.222656 16.613281 -8.691406 16.875 -8.078125 C 17.144531 -7.460938 17.28125 -6.738281 17.28125 -5.90625 C 17.28125 -4.914062 17.09375 -4.035156 16.71875 -3.265625 C 16.34375 -2.503906 15.804688 -1.859375 15.109375 -1.328125 C 14.421875 -0.796875 13.601562 -0.394531 12.65625 -0.125 C 11.71875 0.144531 10.6875 0.28125 9.5625 0.28125 Z M 9.5625 0.28125 "/></g></g><g style="fill:#ffffff;fill-opacity:1;"><g transform="translate(56.289499, 30.499239)"><path style="stroke:none" d="M 14.671875 -20.6875 L 14.671875 -16.90625 L 9.765625 -16.90625 L 9.765625 0 L 5.515625 0 L 5.515625 -16.90625 L 0.578125 -16.90625 L 0.578125 -20.6875 Z M 14.671875 -20.6875 "/></g></g><g style="fill:#ffffff;fill-opacity:1;"><g transform="translate(73.738603, 30.499239)"><path style="stroke:none" d="M 16.53125 0 L 15.015625 -4.265625 L 6.328125 -4.265625 L 4.828125 0 L 0.421875 0 L 8.046875 -20.6875 L 13.296875 -20.6875 L 20.921875 0 Z M 7.59375 -7.859375 L 13.765625 -7.859375 L 10.6875 -16.640625 Z M 7.59375 -7.859375 "/></g></g></g></g></g></svg>